<svg width="267" height="121" viewBox="0 0 267 121" fill="none" xmlns="http://www.w3.org/2000/svg">
<path d="M2.94809 103.97C3.36809 101.15 3.68809 98.44 3.90809 95.84C4.14809 93.24 4.26809 90.88 4.26809 88.76C4.26809 86.64 4.12809 85.25 3.84809 84.59C5.98809 85.15 7.32809 86.03 7.86809 87.23C9.40809 86.37 11.0381 85.94 12.7581 85.94C14.4781 85.94 15.8781 86.43 16.9581 87.41C18.0581 88.37 18.6081 89.55 18.6081 90.95C18.6081 92.33 18.1081 93.62 17.1081 94.82C16.1081 96 14.7381 96.88 12.9981 97.46C14.3981 97.76 15.6781 98.44 16.8381 99.5C18.0181 100.54 18.6081 101.83 18.6081 103.37C18.6081 105.73 17.7281 107.55 15.9681 108.83C14.2281 110.09 12.0181 110.72 9.33809 110.72C6.67809 110.72 4.32809 109.95 2.28809 108.41C2.30809 108.25 2.52809 106.77 2.94809 103.97ZM14.3781 91.64C14.3781 90.74 14.0981 89.99 13.5381 89.39C12.9781 88.77 12.1881 88.46 11.1681 88.46C10.1481 88.46 9.16809 88.67 8.22809 89.09C8.22809 90.31 7.95809 93.38 7.41809 98.3C6.89809 103.22 6.63809 106.37 6.63809 107.75C7.51809 108.11 8.36809 108.29 9.18809 108.29C10.6081 108.29 11.7781 107.82 12.6981 106.88C13.6181 105.94 14.0781 104.76 14.0781 103.34C14.0781 101.92 13.5981 100.74 12.6381 99.8C11.6781 98.84 10.3381 98.32 8.61809 98.24L8.52809 97.16C10.3681 96.9 11.7981 96.23 12.8181 95.15C13.8581 94.05 14.3781 92.88 14.3781 91.64ZM23.0094 105.08C23.0094 104.24 23.1694 102.72 23.4894 100.52C23.8094 98.32 23.9694 96.61 23.9694 95.39C23.9694 94.17 23.9094 93.23 23.7894 92.57C24.2294 92.53 24.6394 92.51 25.0194 92.51C26.1794 92.51 26.9794 92.71 27.4194 93.11C27.8794 93.49 28.1094 94.15 28.1094 95.09C28.1094 95.39 27.8594 96.97 27.3594 99.83C26.8794 102.67 26.6294 105.02 26.6094 106.88C26.6094 108.72 26.7294 109.91 26.9694 110.45C25.4094 110.05 24.3594 109.45 23.8194 108.65C23.2794 107.83 23.0094 106.64 23.0094 105.08ZM27.0894 89.99C25.0294 89.99 23.9994 89.27 23.9994 87.83C23.9994 87.31 24.1494 86.6 24.4494 85.7C25.0094 85.62 25.4994 85.58 25.9194 85.58C27.9794 85.58 29.0094 86.3 29.0094 87.74C29.0094 88.26 28.8594 88.97 28.5594 89.87C27.9994 89.95 27.5094 89.99 27.0894 89.99ZM38.5581 94.46C37.9981 94.46 37.4981 94.65 37.0581 95.03C36.6181 95.39 36.3981 95.91 36.3981 96.59C36.3981 97.27 36.6281 97.91 37.0881 98.51C37.5681 99.11 38.1481 99.64 38.8281 100.1C39.5081 100.54 40.1881 101 40.8681 101.48C41.5681 101.94 42.1781 102.52 42.6981 103.22C43.2181 103.9 43.5081 104.66 43.5681 105.5C43.5681 106.94 42.9481 108.15 41.7081 109.13C40.4681 110.11 38.9281 110.6 37.0881 110.6C35.2481 110.6 33.7981 110.23 32.7381 109.49C31.6981 108.75 31.1781 107.9 31.1781 106.94C31.1781 105.98 31.4681 105.21 32.0481 104.63C32.6481 104.03 33.3881 103.73 34.2681 103.73C34.7281 103.73 35.1581 103.81 35.5581 103.97C34.9181 104.65 34.5981 105.37 34.5981 106.13C34.5981 106.89 34.8081 107.5 35.2281 107.96C35.6481 108.42 36.2181 108.65 36.9381 108.65C37.6581 108.65 38.2581 108.47 38.7381 108.11C39.2381 107.73 39.4881 107.25 39.4881 106.67C39.4881 106.07 39.3181 105.54 38.9781 105.08C38.6381 104.62 38.2081 104.22 37.6881 103.88C37.1881 103.52 36.6381 103.12 36.0381 102.68C35.4381 102.24 34.8781 101.8 34.3581 101.36C33.8581 100.9 33.4381 100.33 33.0981 99.65C32.7581 98.95 32.5881 98.19 32.5881 97.37C32.5881 95.95 33.1681 94.79 34.3281 93.89C35.5081 92.97 36.9681 92.51 38.7081 92.51C40.4681 92.51 41.7481 92.85 42.5481 93.53C43.3681 94.21 43.7781 95.01 43.7781 95.93C43.7781 96.83 43.4881 97.6 42.9081 98.24C42.3481 98.88 41.6181 99.2 40.7181 99.2C40.2781 99.2 39.7781 99.11 39.2181 98.93C39.6581 98.55 39.9981 98.12 40.2381 97.64C40.4781 97.14 40.5981 96.65 40.5981 96.17C40.5981 95.69 40.3981 95.29 39.9981 94.97C39.5981 94.63 39.1181 94.46 38.5581 94.46ZM50.6767 104.33C50.6767 105.27 50.8467 106.04 51.1867 106.64C51.5467 107.22 52.0467 107.51 52.6867 107.51C53.6267 107.51 54.5167 106.96 55.3567 105.86C56.2167 104.76 56.8967 103.35 57.3967 101.63C57.9167 99.91 58.1767 98.28 58.1767 96.74C58.1767 95.18 58.1167 93.92 57.9967 92.96C58.5967 92.92 59.0167 92.9 59.2567 92.9C60.2767 92.9 61.0467 93.09 61.5667 93.47C62.0867 93.85 62.3467 94.53 62.3467 95.51C62.3467 95.89 62.1067 97.44 61.6267 100.16C61.1467 102.86 60.9067 105.03 60.9067 106.67C60.9067 108.29 61.2167 109.73 61.8367 110.99C60.3367 110.73 59.2367 110.18 58.5367 109.34C57.8367 108.48 57.4867 107.25 57.4867 105.65C57.4867 105.37 57.5267 104.83 57.6067 104.03C57.0667 105.93 56.1067 107.46 54.7267 108.62C53.3467 109.78 51.9867 110.36 50.6467 110.36C49.3267 110.36 48.2567 109.87 47.4367 108.89C46.6367 107.89 46.2367 106.48 46.2367 104.66C46.2367 102.84 46.5567 101.08 47.1967 99.38C47.8567 97.66 48.8367 96.21 50.1367 95.03C51.4367 93.83 52.8867 93.23 54.4867 93.23C55.4067 93.23 56.3467 93.45 57.3067 93.89C55.2867 94.61 53.6767 96.03 52.4767 98.15C51.2767 100.25 50.6767 102.31 50.6767 104.33ZM86.882 85.94C89.642 85.94 91.812 87.03 93.392 89.21C94.972 91.39 95.762 94.13 95.762 97.43C95.762 100.17 95.152 102.61 93.932 104.75C92.572 107.13 90.662 108.78 88.202 109.7C86.862 110.2 85.452 110.45 83.972 110.45C82.492 110.45 81.122 110.28 79.862 109.94C78.622 109.6 77.722 109.26 77.162 108.92L76.292 108.41C76.312 108.25 76.532 106.76 76.952 103.94C77.832 98.06 78.272 92.73 78.272 87.95C78.272 86.37 78.132 85.25 77.852 84.59C79.992 85.15 81.332 86.03 81.872 87.23C83.652 86.37 85.322 85.94 86.882 85.94ZM83.282 108.2C85.022 108.2 86.522 107.64 87.782 106.52C89.062 105.4 89.982 104.03 90.542 102.41C91.122 100.79 91.412 99.07 91.412 97.25C91.412 94.69 90.862 92.6 89.762 90.98C88.662 89.36 87.182 88.55 85.322 88.55C84.162 88.55 83.142 88.73 82.262 89.09C82.262 90.31 81.992 93.38 81.452 98.3C80.932 103.22 80.672 106.37 80.672 107.75C81.452 108.05 82.322 108.2 83.282 108.2ZM99.445 105.08C99.445 104.24 99.605 102.72 99.925 100.52C100.245 98.32 100.405 96.61 100.405 95.39C100.405 94.17 100.345 93.23 100.225 92.57C100.665 92.53 101.075 92.51 101.455 92.51C102.615 92.51 103.415 92.71 103.855 93.11C104.315 93.49 104.545 94.15 104.545 95.09C104.545 95.39 104.295 96.97 103.795 99.83C103.315 102.67 103.065 105.02 103.045 106.88C103.045 108.72 103.165 109.91 103.405 110.45C101.845 110.05 100.795 109.45 100.255 108.65C99.715 107.83 99.445 106.64 99.445 105.08ZM103.525 89.99C101.465 89.99 100.435 89.27 100.435 87.83C100.435 87.31 100.585 86.6 100.885 85.7C101.445 85.62 101.935 85.58 102.355 85.58C104.415 85.58 105.445 86.3 105.445 87.74C105.445 88.26 105.295 88.97 104.995 89.87C104.435 89.95 103.945 89.99 103.525 89.99ZM121.534 106.82C121.534 107.82 121.594 108.88 121.714 110C121.074 110.04 120.654 110.06 120.454 110.06C119.334 110.06 118.524 109.87 118.024 109.49C117.524 109.09 117.274 108.51 117.274 107.75C117.274 106.99 117.484 105.43 117.904 103.07C118.344 100.69 118.564 98.89 118.564 97.67C118.564 96.43 118.164 95.81 117.364 95.81C116.924 95.81 116.444 96.08 115.924 96.62C115.404 97.14 114.914 97.86 114.454 98.78C113.994 99.68 113.604 100.84 113.284 102.26C112.984 103.68 112.834 105.05 112.834 106.37C112.834 107.67 112.894 108.88 113.014 110C112.374 110.04 111.954 110.06 111.754 110.06C110.634 110.06 109.824 109.87 109.324 109.49C108.824 109.09 108.574 108.43 108.574 107.51C108.574 107.29 108.774 105.8 109.174 103.04C109.594 100.28 109.804 98.1 109.804 96.5C109.804 94.88 109.634 93.4 109.294 92.06C110.774 92.52 111.804 93.18 112.384 94.04C112.964 94.9 113.254 95.96 113.254 97.22C113.254 97.86 113.184 98.67 113.044 99.65C113.724 97.65 114.664 95.99 115.864 94.67C117.084 93.35 118.254 92.69 119.374 92.69C120.514 92.69 121.334 93.11 121.834 93.95C122.354 94.79 122.614 96 122.614 97.58C123.374 96.12 124.244 94.94 125.224 94.04C126.204 93.14 127.104 92.69 127.924 92.69C129.144 92.69 130.004 93.06 130.504 93.8C131.024 94.52 131.284 95.51 131.284 96.77C131.284 98.01 131.084 99.76 130.684 102.02C130.304 104.28 130.114 105.93 130.114 106.97C130.114 107.99 130.244 108.74 130.504 109.22C130.764 109.68 131.204 110.08 131.824 110.42C131.564 110.44 131.194 110.45 130.714 110.45C129.034 110.45 127.834 110.19 127.114 109.67C126.414 109.15 126.064 108.24 126.064 106.94C126.064 106.2 126.264 104.76 126.664 102.62C127.064 100.46 127.264 98.85 127.264 97.79C127.264 96.47 126.864 95.81 126.064 95.81C125.464 95.81 124.814 96.25 124.114 97.13C123.434 97.99 122.834 99.3 122.314 101.06C121.794 102.8 121.534 104.72 121.534 106.82ZM138.89 104.33C138.89 105.27 139.06 106.04 139.4 106.64C139.76 107.22 140.26 107.51 140.9 107.51C141.84 107.51 142.73 106.96 143.57 105.86C144.43 104.76 145.11 103.35 145.61 101.63C146.13 99.91 146.39 98.28 146.39 96.74C146.39 95.18 146.33 93.92 146.21 92.96C146.81 92.92 147.23 92.9 147.47 92.9C148.49 92.9 149.26 93.09 149.78 93.47C150.3 93.85 150.56 94.53 150.56 95.51C150.56 95.89 150.32 97.44 149.84 100.16C149.36 102.86 149.12 105.03 149.12 106.67C149.12 108.29 149.43 109.73 150.05 110.99C148.55 110.73 147.45 110.18 146.75 109.34C146.05 108.48 145.7 107.25 145.7 105.65C145.7 105.37 145.74 104.83 145.82 104.03C145.28 105.93 144.32 107.46 142.94 108.62C141.56 109.78 140.2 110.36 138.86 110.36C137.54 110.36 136.47 109.87 135.65 108.89C134.85 107.89 134.45 106.48 134.45 104.66C134.45 102.84 134.77 101.08 135.41 99.38C136.07 97.66 137.05 96.21 138.35 95.03C139.65 93.83 141.1 93.23 142.7 93.23C143.62 93.23 144.56 93.45 145.52 93.89C143.5 94.61 141.89 96.03 140.69 98.15C139.49 100.25 138.89 102.31 138.89 104.33ZM165.793 92.69C166.973 92.69 167.813 93.06 168.313 93.8C168.833 94.52 169.093 95.51 169.093 96.77C169.093 98.01 168.893 99.76 168.493 102.02C168.113 104.28 167.923 105.93 167.923 106.97C167.923 107.99 168.053 108.74 168.313 109.22C168.573 109.68 169.013 110.08 169.633 110.42C169.373 110.44 169.003 110.45 168.523 110.45C166.843 110.45 165.643 110.19 164.923 109.67C164.223 109.15 163.873 108.24 163.873 106.94C163.873 106.2 164.073 104.76 164.473 102.62C164.873 100.46 165.073 98.85 165.073 97.79C165.073 96.47 164.673 95.81 163.873 95.81C163.413 95.81 162.893 96.08 162.313 96.62C161.733 97.16 161.173 97.9 160.633 98.84C160.093 99.76 159.643 100.95 159.283 102.41C158.923 103.87 158.743 105.33 158.743 106.79C158.743 108.23 158.803 109.3 158.923 110C158.283 110.04 157.863 110.06 157.663 110.06C156.523 110.06 155.703 109.86 155.203 109.46C154.703 109.06 154.453 108.4 154.453 107.48C154.453 107.08 154.663 105.54 155.083 102.86C155.503 100.18 155.713 98.05 155.713 96.47C155.713 94.87 155.543 93.4 155.203 92.06C156.663 92.52 157.683 93.18 158.263 94.04C158.843 94.88 159.133 95.85 159.133 96.95C159.133 98.03 159.013 99.29 158.773 100.73C159.433 98.49 160.473 96.59 161.893 95.03C163.313 93.47 164.613 92.69 165.793 92.69ZM176.712 104.33C176.712 105.27 176.882 106.04 177.222 106.64C177.582 107.22 178.082 107.51 178.722 107.51C179.662 107.51 180.552 106.96 181.392 105.86C182.252 104.76 182.932 103.35 183.432 101.63C183.952 99.91 184.212 98.28 184.212 96.74C184.212 95.18 184.152 93.92 184.032 92.96C184.632 92.92 185.052 92.9 185.292 92.9C186.312 92.9 187.082 93.09 187.602 93.47C188.122 93.85 188.382 94.53 188.382 95.51C188.382 95.89 188.142 97.44 187.662 100.16C187.182 102.86 186.942 105.03 186.942 106.67C186.942 108.29 187.252 109.73 187.872 110.99C186.372 110.73 185.272 110.18 184.572 109.34C183.872 108.48 183.522 107.25 183.522 105.65C183.522 105.37 183.562 104.83 183.642 104.03C183.102 105.93 182.142 107.46 180.762 108.62C179.382 109.78 178.022 110.36 176.682 110.36C175.362 110.36 174.292 109.87 173.472 108.89C172.672 107.89 172.272 106.48 172.272 104.66C172.272 102.84 172.592 101.08 173.232 99.38C173.892 97.66 174.872 96.21 176.172 95.03C177.472 93.83 178.922 93.23 180.522 93.23C181.442 93.23 182.382 93.45 183.342 93.89C181.322 94.61 179.712 96.03 178.512 98.15C177.312 100.25 176.712 102.31 176.712 104.33ZM210.127 87.86C209.227 87.86 208.477 88.14 207.877 88.7C207.277 89.24 206.977 90.01 206.977 91.01C206.977 92.01 207.227 92.91 207.727 93.71C208.247 94.49 208.877 95.16 209.617 95.72C210.377 96.26 211.197 96.85 212.077 97.49C212.977 98.13 213.797 98.74 214.537 99.32C215.297 99.88 215.927 100.58 216.427 101.42C216.947 102.26 217.207 103.15 217.207 104.09C217.207 105.95 216.447 107.53 214.927 108.83C213.407 110.11 211.407 110.75 208.927 110.75C206.467 110.75 204.517 110.22 203.077 109.16C201.637 108.1 200.917 106.9 200.917 105.56C200.917 104.22 201.317 103.18 202.117 102.44C202.917 101.68 203.947 101.3 205.207 101.3C205.567 101.3 205.907 101.34 206.227 101.42C205.607 102.34 205.297 103.34 205.297 104.42C205.297 105.48 205.627 106.4 206.287 107.18C206.947 107.94 207.817 108.32 208.897 108.32C209.997 108.32 210.917 108.04 211.657 107.48C212.397 106.9 212.767 106.17 212.767 105.29C212.767 104.39 212.517 103.6 212.017 102.92C211.517 102.24 210.897 101.66 210.157 101.18C209.417 100.68 208.607 100.12 207.727 99.5C206.847 98.86 206.037 98.22 205.297 97.58C204.557 96.94 203.937 96.13 203.437 95.15C202.937 94.15 202.687 93.06 202.687 91.88C202.687 89.98 203.377 88.47 204.757 87.35C206.137 86.21 207.997 85.64 210.337 85.64C212.677 85.64 214.447 86.17 215.647 87.23C216.867 88.27 217.477 89.39 217.477 90.59C217.477 91.77 217.097 92.77 216.337 93.59C215.577 94.39 214.547 94.79 213.247 94.79C212.807 94.79 212.377 94.75 211.957 94.67C212.937 93.63 213.427 92.54 213.427 91.4C213.427 90.24 213.107 89.36 212.467 88.76C211.827 88.16 211.047 87.86 210.127 87.86ZM224.524 104.33C224.524 105.27 224.694 106.04 225.034 106.64C225.394 107.22 225.894 107.51 226.534 107.51C227.474 107.51 228.364 106.96 229.204 105.86C230.064 104.76 230.744 103.35 231.244 101.63C231.764 99.91 232.024 98.28 232.024 96.74C232.024 95.18 231.964 93.92 231.844 92.96C232.444 92.92 232.864 92.9 233.104 92.9C234.124 92.9 234.894 93.09 235.414 93.47C235.934 93.85 236.194 94.53 236.194 95.51C236.194 95.89 235.954 97.44 235.474 100.16C234.994 102.86 234.754 105.03 234.754 106.67C234.754 108.29 235.064 109.73 235.684 110.99C234.184 110.73 233.084 110.18 232.384 109.34C231.684 108.48 231.334 107.25 231.334 105.65C231.334 105.37 231.374 104.83 231.454 104.03C230.914 105.93 229.954 107.46 228.574 108.62C227.194 109.78 225.834 110.36 224.494 110.36C223.174 110.36 222.104 109.87 221.284 108.89C220.484 107.89 220.084 106.48 220.084 104.66C220.084 102.84 220.404 101.08 221.044 99.38C221.704 97.66 222.684 96.21 223.984 95.03C225.284 93.83 226.734 93.23 228.334 93.23C229.254 93.23 230.194 93.45 231.154 93.89C229.134 94.61 227.524 96.03 226.324 98.15C225.124 100.25 224.524 102.31 224.524 104.33ZM242.427 92.51C243.527 92.51 244.297 92.69 244.737 93.05C245.197 93.41 245.427 94.13 245.427 95.21C245.427 96.27 245.397 97.45 245.337 98.75C245.277 100.03 245.157 101.53 244.977 103.25C244.797 104.95 244.557 106.55 244.257 108.05C243.977 109.55 243.577 111.05 243.057 112.55C242.537 114.05 241.937 115.33 241.257 116.39C240.597 117.47 239.757 118.34 238.737 119C237.717 119.68 236.627 120.02 235.467 120.02C234.287 120.02 233.317 119.68 232.557 119C231.777 118.34 231.387 117.52 231.387 116.54C231.387 115.58 231.717 114.74 232.377 114.02C233.037 113.3 233.907 112.94 234.987 112.94C235.407 112.94 235.817 113.01 236.217 113.15C235.897 113.39 235.587 113.81 235.287 114.41C234.967 115.01 234.807 115.57 234.807 116.09C234.807 116.63 234.927 117.05 235.167 117.35C235.387 117.65 235.687 117.8 236.067 117.8C237.027 117.8 237.867 117.17 238.587 115.91C239.307 114.65 239.847 112.98 240.207 110.9C240.907 106.86 241.257 102.44 241.257 97.64C241.257 95.56 241.217 93.87 241.137 92.57C241.577 92.53 242.007 92.51 242.427 92.51ZM244.137 89.96C242.077 89.96 241.047 89.24 241.047 87.8C241.047 87.28 241.197 86.57 241.497 85.67C242.057 85.59 242.547 85.55 242.967 85.55C245.027 85.55 246.057 86.27 246.057 87.71C246.057 88.23 245.907 88.94 245.607 89.84C245.047 89.92 244.557 89.96 244.137 89.96ZM253.499 104.33C253.499 105.27 253.669 106.04 254.009 106.64C254.369 107.22 254.869 107.51 255.509 107.51C256.449 107.51 257.339 106.96 258.179 105.86C259.039 104.76 259.719 103.35 260.219 101.63C260.739 99.91 260.999 98.28 260.999 96.74C260.999 95.18 260.939 93.92 260.819 92.96C261.419 92.92 261.839 92.9 262.079 92.9C263.099 92.9 263.869 93.09 264.389 93.47C264.909 93.85 265.169 94.53 265.169 95.51C265.169 95.89 264.929 97.44 264.449 100.16C263.969 102.86 263.729 105.03 263.729 106.67C263.729 108.29 264.039 109.73 264.659 110.99C263.159 110.73 262.059 110.18 261.359 109.34C260.659 108.48 260.309 107.25 260.309 105.65C260.309 105.37 260.349 104.83 260.429 104.03C259.889 105.93 258.929 107.46 257.549 108.62C256.169 109.78 254.809 110.36 253.469 110.36C252.149 110.36 251.079 109.87 250.259 108.89C249.459 107.89 249.059 106.48 249.059 104.66C249.059 102.84 249.379 101.08 250.019 99.38C250.679 97.66 251.659 96.21 252.959 95.03C254.259 93.83 255.709 93.23 257.309 93.23C258.229 93.23 259.169 93.45 260.129 93.89C258.109 94.61 256.499 96.03 255.299 98.15C254.099 100.25 253.499 102.31 253.499 104.33Z" fill="#FF725E"/>
<path d="M43.2465 43.976C42.0945 44.424 41.1985 44.648 40.5585 44.648C38.6385 44.648 37.5665 44.376 37.3425 43.832C34.1425 35.608 32.0305 30.312 31.0065 27.944C30.9105 28.808 30.6545 30.808 30.2385 33.944C29.3745 40.088 28.9425 45.192 28.9425 49.256C28.9425 50.248 29.0065 51.576 29.1345 53.24C26.8945 53.24 25.3745 52.984 24.5745 52.472C23.8065 51.928 23.4225 51.176 23.4225 50.216C23.4225 49.896 23.9505 45.544 25.0065 37.16C26.0945 28.776 26.6385 22.936 26.6385 19.64V19.4C25.7105 17.896 24.7345 16.664 23.7105 15.704C24.8945 14.872 26.3185 14.456 27.9825 14.456C30.0945 14.456 31.7265 15.448 32.8785 17.432C34.0305 19.384 36.2865 24.776 39.6465 33.608L41.8545 39.272C42.0465 38.952 42.3345 38.52 42.7185 37.976C50.5265 26.424 54.5425 18.584 54.7665 14.456C54.7665 14.488 55.1505 14.536 55.9185 14.6C56.6865 14.632 57.5025 14.792 58.3665 15.08C59.2625 15.336 59.9025 15.752 60.2865 16.328C60.7025 16.872 60.9585 17.416 61.0545 17.96C61.1505 18.472 61.1985 19.368 61.1985 20.648C61.1985 21.896 60.6705 26.136 59.6145 33.368C58.5585 40.6 58.0305 45.672 58.0305 48.584C58.0305 51.464 58.2545 53.432 58.7025 54.488C55.9825 53.784 54.1265 52.856 53.1345 51.704C52.1425 50.52 51.6465 48.888 51.6465 46.808C51.6465 45.592 51.9665 42.6 52.6065 37.832C53.2785 33.064 53.7425 29.256 53.9985 26.408C52.7185 28.616 50.8945 31.64 48.5265 35.48C46.1905 39.32 44.7825 41.608 44.3025 42.344C43.8225 43.048 43.4705 43.592 43.2465 43.976ZM78.5149 41.192C76.9789 41.192 75.4749 41.016 74.0029 40.664C73.9709 40.984 73.9549 41.48 73.9549 42.152C73.9549 44.808 74.4509 46.808 75.4429 48.152C76.4349 49.496 77.6189 50.168 78.9949 50.168C80.3709 50.168 81.6829 49.752 82.9309 48.92C84.1789 48.088 85.2669 46.936 86.1949 45.464C87.3469 45.72 87.9229 46.312 87.9229 47.24C85.1069 51.56 81.4749 53.72 77.0269 53.72C74.3389 53.72 71.9869 52.696 69.9709 50.648C67.9549 48.568 66.9469 45.688 66.9469 42.008C66.9469 39.256 67.4749 36.648 68.5309 34.184C69.5869 31.688 71.2669 29.592 73.5709 27.896C75.8749 26.168 78.4189 25.304 81.2029 25.304C84.0189 25.304 86.0829 25.944 87.3949 27.224C88.7069 28.504 89.3629 30.184 89.3629 32.264C89.3629 35.272 88.3069 37.512 86.1949 38.984C84.1149 40.456 81.5549 41.192 78.5149 41.192ZM80.5309 28.28C78.8989 28.28 77.5229 29.288 76.4029 31.304C75.2829 33.32 74.5469 35.768 74.1949 38.648H74.9149C77.6989 38.648 79.7469 37.928 81.0589 36.488C82.4029 35.048 83.0749 33.32 83.0749 31.304C83.0749 30.472 82.8509 29.768 82.4029 29.192C81.9869 28.584 81.3629 28.28 80.5309 28.28ZM115.502 47.912C115.502 49.512 115.598 51.208 115.79 53C114.766 53.064 114.094 53.096 113.774 53.096C111.982 53.096 110.686 52.792 109.886 52.184C109.086 51.544 108.686 50.616 108.686 49.4C108.686 48.184 109.022 45.688 109.694 41.912C110.398 38.104 110.75 35.224 110.75 33.272C110.75 31.288 110.11 30.296 108.83 30.296C108.126 30.296 107.358 30.728 106.526 31.592C105.694 32.424 104.91 33.576 104.174 35.048C103.438 36.488 102.814 38.344 102.302 40.616C101.822 42.888 101.582 45.08 101.582 47.192C101.582 49.272 101.678 51.208 101.87 53C100.846 53.064 100.174 53.096 99.8543 53.096C98.0623 53.096 96.7663 52.792 95.9663 52.184C95.1663 51.544 94.7663 50.488 94.7663 49.016C94.7663 48.664 95.0863 46.28 95.7263 41.864C96.3983 37.448 96.7343 33.96 96.7343 31.4C96.7343 28.808 96.4623 26.44 95.9183 24.296C98.2863 25.032 99.9343 26.088 100.862 27.464C101.79 28.84 102.254 30.536 102.254 32.552C102.254 33.576 102.142 34.872 101.918 36.44C103.006 33.24 104.51 30.584 106.43 28.472C108.382 26.36 110.254 25.304 112.046 25.304C113.87 25.304 115.182 25.976 115.982 27.32C116.814 28.664 117.23 30.6 117.23 33.128C118.446 30.792 119.838 28.904 121.406 27.464C122.974 26.024 124.414 25.304 125.726 25.304C127.678 25.304 129.054 25.896 129.854 27.08C130.686 28.232 131.102 29.816 131.102 31.832C131.102 33.816 130.782 36.616 130.142 40.232C129.534 43.848 129.23 46.488 129.23 48.152C129.23 49.784 129.438 50.984 129.854 51.752C130.27 52.488 130.974 53.128 131.966 53.672C131.55 53.704 130.958 53.72 130.19 53.72C127.502 53.72 125.582 53.304 124.43 52.472C123.31 51.64 122.75 50.184 122.75 48.104C122.75 46.92 123.07 44.616 123.71 41.192C124.35 37.736 124.67 35.16 124.67 33.464C124.67 31.352 124.03 30.296 122.75 30.296C121.79 30.296 120.75 31 119.63 32.408C118.542 33.784 117.582 35.88 116.75 38.696C115.918 41.48 115.502 44.552 115.502 47.912ZM143.272 43.928C143.272 45.432 143.544 46.664 144.088 47.624C144.664 48.552 145.464 49.016 146.488 49.016C147.992 49.016 149.416 48.136 150.76 46.376C152.136 44.616 153.224 42.36 154.024 39.608C154.856 36.856 155.272 34.248 155.272 31.784C155.272 29.288 155.176 27.272 154.984 25.736C155.944 25.672 156.616 25.64 157 25.64C158.632 25.64 159.864 25.944 160.696 26.552C161.528 27.16 161.944 28.248 161.944 29.816C161.944 30.424 161.56 32.904 160.792 37.256C160.024 41.576 159.64 45.048 159.64 47.672C159.64 50.264 160.136 52.568 161.128 54.584C158.728 54.168 156.968 53.288 155.848 51.944C154.728 50.568 154.168 48.6 154.168 46.04C154.168 45.592 154.232 44.728 154.36 43.448C153.496 46.488 151.96 48.936 149.752 50.792C147.544 52.648 145.368 53.576 143.224 53.576C141.112 53.576 139.4 52.792 138.088 51.224C136.808 49.624 136.168 47.368 136.168 44.456C136.168 41.544 136.68 38.728 137.704 36.008C138.76 33.256 140.328 30.936 142.408 29.048C144.488 27.128 146.808 26.168 149.368 26.168C150.84 26.168 152.344 26.52 153.88 27.224C150.648 28.376 148.072 30.648 146.152 34.04C144.232 37.4 143.272 40.696 143.272 43.928ZM178.445 28.136C177.549 28.136 176.749 28.44 176.045 29.048C175.341 29.624 174.989 30.456 174.989 31.544C174.989 32.632 175.357 33.656 176.093 34.616C176.861 35.576 177.789 36.424 178.877 37.16C179.965 37.864 181.053 38.6 182.141 39.368C183.261 40.104 184.237 41.032 185.069 42.152C185.901 43.24 186.365 44.456 186.461 45.8C186.461 48.104 185.469 50.04 183.485 51.608C181.501 53.176 179.037 53.96 176.093 53.96C173.149 53.96 170.829 53.368 169.133 52.184C167.469 51 166.637 49.64 166.637 48.104C166.637 46.568 167.101 45.336 168.029 44.408C168.989 43.448 170.173 42.968 171.581 42.968C172.317 42.968 173.005 43.096 173.645 43.352C172.621 44.44 172.109 45.592 172.109 46.808C172.109 48.024 172.445 49 173.117 49.736C173.789 50.472 174.701 50.84 175.853 50.84C177.005 50.84 177.965 50.552 178.733 49.976C179.533 49.368 179.933 48.6 179.933 47.672C179.933 46.712 179.661 45.864 179.117 45.128C178.573 44.392 177.885 43.752 177.053 43.208C176.253 42.632 175.373 41.992 174.413 41.288C173.453 40.584 172.557 39.88 171.725 39.176C170.925 38.44 170.253 37.528 169.709 36.44C169.165 35.32 168.893 34.104 168.893 32.792C168.893 30.52 169.821 28.664 171.677 27.224C173.565 25.752 175.901 25.016 178.685 25.016C181.501 25.016 183.549 25.56 184.829 26.648C186.141 27.736 186.797 29.016 186.797 30.488C186.797 31.928 186.333 33.16 185.405 34.184C184.509 35.208 183.341 35.72 181.901 35.72C181.197 35.72 180.397 35.576 179.501 35.288C180.205 34.68 180.749 33.992 181.133 33.224C181.517 32.424 181.709 31.64 181.709 30.872C181.709 30.104 181.389 29.464 180.749 28.952C180.109 28.408 179.341 28.136 178.445 28.136ZM197.834 43.928C197.834 45.432 198.106 46.664 198.65 47.624C199.226 48.552 200.026 49.016 201.05 49.016C202.554 49.016 203.978 48.136 205.322 46.376C206.698 44.616 207.786 42.36 208.586 39.608C209.418 36.856 209.834 34.248 209.834 31.784C209.834 29.288 209.738 27.272 209.546 25.736C210.506 25.672 211.178 25.64 211.562 25.64C213.194 25.64 214.426 25.944 215.258 26.552C216.09 27.16 216.506 28.248 216.506 29.816C216.506 30.424 216.122 32.904 215.354 37.256C214.586 41.576 214.202 45.048 214.202 47.672C214.202 50.264 214.698 52.568 215.69 54.584C213.29 54.168 211.53 53.288 210.41 51.944C209.29 50.568 208.73 48.6 208.73 46.04C208.73 45.592 208.794 44.728 208.922 43.448C208.058 46.488 206.522 48.936 204.314 50.792C202.106 52.648 199.93 53.576 197.786 53.576C195.674 53.576 193.962 52.792 192.65 51.224C191.37 49.624 190.73 47.368 190.73 44.456C190.73 41.544 191.242 38.728 192.266 36.008C193.322 33.256 194.89 30.936 196.97 29.048C199.05 27.128 201.37 26.168 203.93 26.168C205.402 26.168 206.906 26.52 208.442 27.224C205.21 28.376 202.634 30.648 200.714 34.04C198.794 37.4 197.834 40.696 197.834 43.928ZM238.815 25.208C240.511 25.208 241.951 25.832 243.135 27.08C244.319 28.328 244.911 29.928 244.911 31.88C244.911 33.832 244.351 35.512 243.231 36.92C242.143 38.296 240.607 39.368 238.623 40.136L239.199 41.912C240.255 45.208 241.791 48.472 243.807 51.704C245.823 54.936 247.455 57.144 248.703 58.328C247.551 58.616 246.527 58.76 245.631 58.76C242.399 58.76 239.567 56.408 237.135 51.704C236.175 49.848 234.767 46.376 232.911 41.288C232.495 41.32 231.887 41.336 231.087 41.336C230.895 41.176 230.799 40.664 230.799 39.8C232.271 39.768 233.583 39.512 234.735 39.032C235.887 38.552 236.783 37.928 237.423 37.16C238.639 35.592 239.247 33.944 239.247 32.216C239.247 31.352 239.055 30.648 238.671 30.104C238.319 29.528 237.807 29.24 237.135 29.24C235.951 29.24 234.735 30.088 233.487 31.784C232.271 33.48 231.231 35.848 230.367 38.888C229.535 41.896 229.119 44.728 229.119 47.384C229.119 50.008 229.215 51.88 229.407 53C228.383 53.064 227.711 53.096 227.391 53.096C225.567 53.096 224.255 52.792 223.455 52.184C222.655 51.544 222.255 50.536 222.255 49.16C222.255 47.784 222.543 45.16 223.119 41.288C224.815 29.384 225.663 20.344 225.663 14.168C225.663 11.384 225.471 9.512 225.087 8.552C227.487 9.192 229.119 10.168 229.983 11.48C230.879 12.76 231.327 14.584 231.327 16.952C231.327 18.552 231.007 21.912 230.367 27.032C229.759 32.152 229.343 35.864 229.119 38.168C230.271 31.608 232.623 27.496 236.175 25.832C237.071 25.416 237.951 25.208 238.815 25.208Z" fill="#162A3D"/>
</svg>
